# xmcd
#
# Track frame offsets:
#	150
#	21201
#	39422
#	61542
#	81139
#	104827
#	116968
#	134956
#	154938
#	177474
#	196374
#	213554
#	229138
#	247845
#	267553
#	286552
#	299660
#	312852
#	328532
#
# Disc length: 4625
#
# Revision: 3
# Processed by: cddbd v1.5.1PL0 Copyright (c) Steve Scherf et al.
# Submitted via: audiograbber 1.83.01
# Normalized: r2:DSETVAR1
#
DISCID=24120f13
DTITLE=Various Artist - Boulevard des slows
DYEAR=1990
DGENRE=Slow
TTITLE0=Phil Collins - One more night
TTITLE1=Marvin Gaye - Sexual healing
TTITLE2=George Michael - Careless whisper
TTITLE3=Simply Red - Holding back the years
TTITLE4=Jevetta Steele - Bagdad café
TTITLE5=Francis Cabrel - Je l'aime à mourir
TTITLE6=Gloria Estefan - Don't wanna lose you
TTITLE7=Coke Robin - When your heart is weak
TTITLE8=Eagles - New kid in town
TTITLE9=Sade - Love is stronger than pride
TTITLE10=Banglers - Etrenal flame
TTITLE11=Five Letters - Ma keen down
TTITLE12=Paul Young - Everytime you gao away
TTITLE13=Foreigner - Waiting for a girl like you
TTITLE14=Isabelle Fabien - Le silence est d'or
TTITLE15=France Gall - Si maman si
TTITLE16=Veronique Sanson - Amoureuse
TTITLE17=Linda Ronstadt and Aaron Neville - Don't know much
TTITLE18=Berlin - Take my breath away
EXTD=
EXTT0=
EXTT1=
EXTT2=
EXTT3=
EXTT4=
EXTT5=
EXTT6=
EXTT7=
EXTT8=
EXTT9=
EXTT10=
EXTT11=
EXTT12=
EXTT13=
EXTT14=
EXTT15=
EXTT16=
EXTT17=
EXTT18=
PLAYORDER=
